<?xml version="1.0" encoding="UTF-8" standalone="no"?>
<!-- Created with Inkscape (http://www.inkscape.org/) -->

<svg
   id="svg4941"
   height="342.05588mm"
   width="254.56635mm"
   version="1.1"
   viewBox="0 0 902 1211.9984"
   sodipodi:docname="segments.svg"
   inkscape:version="1.3 (0e150ed, 2023-07-21)"
   xmlns:inkscape="http://www.inkscape.org/namespaces/inkscape"
   xmlns:sodipodi="http://sodipodi.sourceforge.net/DTD/sodipodi-0.dtd"
   xmlns="http://www.w3.org/2000/svg"
   xmlns:svg="http://www.w3.org/2000/svg"
   xmlns:rdf="http://www.w3.org/1999/02/22-rdf-syntax-ns#"
   xmlns:cc="http://creativecommons.org/ns#"
   xmlns:dc="http://purl.org/dc/elements/1.1/">
  <defs
     id="defs1" />
  <sodipodi:namedview
     id="namedview1"
     pagecolor="#ffffff"
     bordercolor="#cccccc"
     borderopacity="1"
     inkscape:showpageshadow="0"
     inkscape:pageopacity="1"
     inkscape:pagecheckerboard="0"
     inkscape:deskcolor="#d1d1d1"
     inkscape:document-units="mm"
     showgrid="false"
     inkscape:zoom="0.41814103"
     inkscape:cx="484.28637"
     inkscape:cy="509.39751"
     inkscape:window-width="1800"
     inkscape:window-height="1097"
     inkscape:window-x="0"
     inkscape:window-y="44"
     inkscape:window-maximized="0"
     inkscape:current-layer="svg4941">
    <inkscape:grid
       id="grid15"
       units="px"
       originx="-80.000598"
       originy="-80.001531"
       spacingx="0.93749299"
       spacingy="0.93749179"
       empcolor="#0099e5"
       empopacity="0.30196078"
       color="#0099e5"
       opacity="0.14901961"
       empspacing="5"
       dotted="false"
       gridanglex="30"
       gridanglez="30"
       visible="false" />
  </sodipodi:namedview>
  <metadata
     id="metadata4946">
    <rdf:RDF>
      <cc:Work
         rdf:about="">
        <dc:format>image/svg+xml</dc:format>
        <dc:type
           rdf:resource="http://purl.org/dc/dcmitype/StillImage" />
        <dc:title />
      </cc:Work>
    </rdf:RDF>
  </metadata>
  <g
     id="segments"
     transform="translate(590,97.639125)"
     inkscape:label="segments">
    <path
       d="m 262,1014.36 a 50,50 0 0 0 -50,50 50,50 0 0 0 50,50 50,50 0 0 0 50,-50 50,50 0 0 0 -50,-50 z"
       id="dp"
       inkscape:label="dp" />
    <path
       d="m -445,519.86 -55,47.5 -90,475 27.5,25 70,-60 82.5,-445 z"
       id="g"
       inkscape:label="g" />
    <path
       d="m -135,509.86 17.5,187.5 85,237.5 52.5,67.5 20,-125 -117.5,-320 z"
       id="m"
       inkscape:label="m" />
    <path
       d="m -148.29,508.93 -93.72,53.57 -212.99,299.86 -20,130 85,-75 140,-200 z"
       id="o"
       inkscape:label="o" />
    <path
       d="m -380,464.86 -47.5,42.5 32.5,40 h 157.5 l 77.5,-45 -47.5,-37.5 z"
       id="p"
       inkscape:label="p" />
    <path
       d="m 200,12.36 -90,75 -134.42,185.7 -110.58,224.3 95,-55 215,-300 z"
       id="k"
       inkscape:label="k" />
    <path
       d="m -300,12.36 -20,125 110,310 60,50 -15,-180 -80,-245 z"
       id="i"
       inkscape:label="i" />
    <path
       d="m -360,-57.64 -32.5,32.5 -85,475 37.5,40 52.5,-45 80,-445 z"
       id="h"
       inkscape:label="h" />
    <path
       d="m -175,1027.36 -52.5,40 35,42.5 H 25 l 32.5,-30 -47.5,-52.5 z"
       id="e"
       inkscape:label="e" />
    <path
       d="m -485,1027.36 -67.5,60 22.5,22.5 h 217.5 l 50,-47.5 -30,-35 z"
       id="f"
       inkscape:label="f" />
    <path
       d="m -145,527.15 -80,170.21 -55,310 37.5,42.5 57.5,-45 54.43,-329.07 z"
       id="n"
       inkscape:label="n" />
    <path
       d="m 157.5,517.36 -55,50 -75,445 47.5,52.5 37.5,-30 82.5,-477.5 z"
       id="d"
       inkscape:label="d" />
    <path
       d="m -50,464.86 -75,40 52.5,42.5 h 165 l 52.5,-47.5 -32.5,-35 z"
       id="l"
       inkscape:label="l" />
    <path
       d="m -40,-42.64 -55,50 -60,305 15,170 80,-165 60,-320 z"
       id="j"
       inkscape:label="j" />
    <path
       d="m 280,-55.14 -65,60 -85,445 35,40 52.5,-47.5 90,-465 z"
       id="c"
       inkscape:label="c" />
    <path
       d="m 35,-97.64 -55,45 40,40 h 180 l 70,-60 -25,-25 z"
       id="b"
       style="display:inline"
       inkscape:label="b" />
    <path
       d="m -305,-97.64 -35,30 50,55 h 190 l 50,-45 -35,-40 z"
       id="a"
       style="display:inline"
       inkscape:label="a" />
  </g>
</svg>
